<?xml version="1.0" standalone="no"?><!DOCTYPE svg PUBLIC "-//W3C//DTD SVG 1.1//EN" "http://www.w3.org/Graphics/SVG/1.1/DTD/svg11.dtd"><svg t="1529074644162" class="icon" style="" viewBox="0 0 1088 1024" version="1.1" xmlns="http://www.w3.org/2000/svg" p-id="29642" xmlns:xlink="http://www.w3.org/1999/xlink" width="34" height="32"><defs><style type="text/css"></style></defs><path d="M544.256 1023.232a49.536 49.536 0 0 1-35.648-15.36s-118.592-122.88-164.096-170.752H164.992c-88.96 0-164.224-79.808-164.224-174.4V166.848c0-91.712 72.32-166.336 161.344-166.336h764.288c88.96 0 161.28 74.624 161.28 166.336v495.808c0 94.592-75.136 174.464-164.224 174.464h-184.768c-65.024 64.512-156.8 168.64-157.76 169.6a50.368 50.368 0 0 1-36.672 16.512zM162.176 68.736c-51.52 0-93.44 44.032-93.44 98.112v495.808c0 56.576 45.056 106.304 96.256 106.304h208.832l10.048 10.688a25094.4 25094.4 0 0 0 159.872 166.592c29.44-33.088 104.064-115.776 157.504-167.68l9.92-9.664h212.352c51.328 0 96.32-49.728 96.32-106.24V166.784c0-54.144-41.856-98.112-93.44-98.112H162.176z" fill="#bfbfbf" p-id="29643"></path><path d="M289.536 365.248c-35.2 0-63.68 29.568-63.68 66.112 0 36.48 28.544 66.112 63.68 66.112 35.072 0 63.616-29.568 63.616-66.112s-28.416-66.112-63.616-66.112M544.256 365.248c-35.2 0-63.616 29.568-63.616 66.112 0 36.48 28.48 66.112 63.616 66.112 35.136 0 63.68-29.568 63.68-66.112s-28.48-66.112-63.68-66.112M799.04 365.248c-35.2 0-63.744 29.568-63.744 66.112 0 36.48 28.544 66.112 63.744 66.112s63.616-29.568 63.616-66.112c0.064-36.544-28.48-66.112-63.616-66.112" fill="#bfbfbf" p-id="29644"></path></svg>