<?xml version="1.0" standalone="no"?><!DOCTYPE svg PUBLIC "-//W3C//DTD SVG 1.1//EN" "http://www.w3.org/Graphics/SVG/1.1/DTD/svg11.dtd"><svg t="1529074520082" class="icon" style="" viewBox="0 0 1024 1024" version="1.1" xmlns="http://www.w3.org/2000/svg" p-id="27721" xmlns:xlink="http://www.w3.org/1999/xlink" width="32" height="32"><defs><style type="text/css"></style></defs><path d="M21.333333 0v1024" fill="#d81e06" p-id="27722"></path><path d="M42.666667 0v1024" fill="#d81e06" p-id="27723"></path><path d="M64 0v1024" fill="#d81e06" p-id="27724"></path><path d="M85.333333 0v1024" fill="#d81e06" p-id="27725"></path><path d="M106.666667 0v1024" fill="#d81e06" p-id="27726"></path><path d="M128 0v1024" fill="#d81e06" p-id="27727"></path><path d="M149.333333 0v1024" fill="#d81e06" p-id="27728"></path><path d="M170.666667 0v1024" fill="#d81e06" p-id="27729"></path><path d="M192 0v1024" fill="#d81e06" p-id="27730"></path><path d="M213.333333 0v1024" fill="#d81e06" p-id="27731"></path><path d="M234.666667 0v1024" fill="#d81e06" p-id="27732"></path><path d="M256 0v1024" fill="#d81e06" p-id="27733"></path><path d="M277.333333 0v1024" fill="#d81e06" p-id="27734"></path><path d="M298.666667 0v1024" fill="#d81e06" p-id="27735"></path><path d="M320 0v1024" fill="#d81e06" p-id="27736"></path><path d="M341.333333 0v1024" fill="#d81e06" p-id="27737"></path><path d="M362.666667 0v1024" fill="#d81e06" p-id="27738"></path><path d="M384 0v1024" fill="#d81e06" p-id="27739"></path><path d="M405.333333 0v1024" fill="#d81e06" p-id="27740"></path><path d="M426.666667 0v1024" fill="#d81e06" p-id="27741"></path><path d="M448 0v1024" fill="#d81e06" p-id="27742"></path><path d="M469.333333 0v1024" fill="#d81e06" p-id="27743"></path><path d="M490.666667 0v1024" fill="#d81e06" p-id="27744"></path><path d="M512 0v1024" fill="#d81e06" p-id="27745"></path><path d="M533.333333 0v1024" fill="#d81e06" p-id="27746"></path><path d="M554.666667 0v1024" fill="#d81e06" p-id="27747"></path><path d="M576 0v1024" fill="#d81e06" p-id="27748"></path><path d="M597.333333 0v1024" fill="#d81e06" p-id="27749"></path><path d="M618.666667 0v1024" fill="#d81e06" p-id="27750"></path><path d="M640 0v1024" fill="#d81e06" p-id="27751"></path><path d="M661.333333 0v1024" fill="#d81e06" p-id="27752"></path><path d="M682.666667 0v1024" fill="#d81e06" p-id="27753"></path><path d="M704 0v1024" fill="#d81e06" p-id="27754"></path><path d="M725.333333 0v1024" fill="#d81e06" p-id="27755"></path><path d="M746.666667 0v1024" fill="#d81e06" p-id="27756"></path><path d="M768 0v1024" fill="#d81e06" p-id="27757"></path><path d="M789.333333 0v1024" fill="#d81e06" p-id="27758"></path><path d="M810.666667 0v1024" fill="#d81e06" p-id="27759"></path><path d="M832 0v1024" fill="#d81e06" p-id="27760"></path><path d="M853.333333 0v1024" fill="#d81e06" p-id="27761"></path><path d="M874.666667 0v1024" fill="#d81e06" p-id="27762"></path><path d="M896 0v1024" fill="#d81e06" p-id="27763"></path><path d="M917.333333 0v1024" fill="#d81e06" p-id="27764"></path><path d="M938.666667 0v1024" fill="#d81e06" p-id="27765"></path><path d="M960 0v1024" fill="#d81e06" p-id="27766"></path><path d="M981.333333 0v1024" fill="#d81e06" p-id="27767"></path><path d="M1002.666667 0v1024M0 21.333333h1024" fill="#d81e06" p-id="27768"></path><path d="M0 42.666667h1024" fill="#d81e06" p-id="27769"></path><path d="M0 64h1024" fill="#d81e06" p-id="27770"></path><path d="M0 85.333333h1024" fill="#d81e06" p-id="27771"></path><path d="M0 106.666667h1024" fill="#d81e06" p-id="27772"></path><path d="M0 128h1024" fill="#d81e06" p-id="27773"></path><path d="M0 149.333333h1024" fill="#d81e06" p-id="27774"></path><path d="M0 170.666667h1024" fill="#d81e06" p-id="27775"></path><path d="M0 192h1024" fill="#d81e06" p-id="27776"></path><path d="M0 213.333333h1024" fill="#d81e06" p-id="27777"></path><path d="M0 234.666667h1024" fill="#d81e06" p-id="27778"></path><path d="M0 256h1024" fill="#d81e06" p-id="27779"></path><path d="M0 277.333333h1024" fill="#d81e06" p-id="27780"></path><path d="M0 298.666667h1024" fill="#d81e06" p-id="27781"></path><path d="M0 320h1024" fill="#d81e06" p-id="27782"></path><path d="M0 341.333333h1024" fill="#d81e06" p-id="27783"></path><path d="M0 362.666667h1024" fill="#d81e06" p-id="27784"></path><path d="M0 384h1024" fill="#d81e06" p-id="27785"></path><path d="M0 405.333333h1024" fill="#d81e06" p-id="27786"></path><path d="M0 426.666667h1024" fill="#d81e06" p-id="27787"></path><path d="M0 448h1024" fill="#d81e06" p-id="27788"></path><path d="M0 469.333333h1024" fill="#d81e06" p-id="27789"></path><path d="M0 490.666667h1024" fill="#d81e06" p-id="27790"></path><path d="M0 512h1024" fill="#d81e06" p-id="27791"></path><path d="M0 533.333333h1024" fill="#d81e06" p-id="27792"></path><path d="M0 554.666667h1024" fill="#d81e06" p-id="27793"></path><path d="M0 576h1024" fill="#d81e06" p-id="27794"></path><path d="M0 597.333333h1024" fill="#d81e06" p-id="27795"></path><path d="M0 618.666667h1024" fill="#d81e06" p-id="27796"></path><path d="M0 640h1024" fill="#d81e06" p-id="27797"></path><path d="M0 661.333333h1024" fill="#d81e06" p-id="27798"></path><path d="M0 682.666667h1024" fill="#d81e06" p-id="27799"></path><path d="M0 704h1024" fill="#d81e06" p-id="27800"></path><path d="M0 725.333333h1024" fill="#d81e06" p-id="27801"></path><path d="M0 746.666667h1024" fill="#d81e06" p-id="27802"></path><path d="M0 768h1024" fill="#d81e06" p-id="27803"></path><path d="M0 789.333333h1024" fill="#d81e06" p-id="27804"></path><path d="M0 810.666667h1024" fill="#d81e06" p-id="27805"></path><path d="M0 832h1024" fill="#d81e06" p-id="27806"></path><path d="M0 853.333333h1024" fill="#d81e06" p-id="27807"></path><path d="M0 874.666667h1024" fill="#d81e06" p-id="27808"></path><path d="M0 896h1024" fill="#d81e06" p-id="27809"></path><path d="M0 917.333333h1024" fill="#d81e06" p-id="27810"></path><path d="M0 938.666667h1024" fill="#d81e06" p-id="27811"></path><path d="M0 960h1024" fill="#d81e06" p-id="27812"></path><path d="M0 981.333333h1024" fill="#d81e06" p-id="27813"></path><path d="M0 1002.666667h1024" fill="#d81e06" p-id="27814"></path><path d="M982 426l-2 4h2V512q0 16-6 32l-130 300q-20 52-78 52H384q-34 0-60-26t-26-60V384q0-34 26-60L604 42 650 88Q668 106 668 132v14l-42 196H896q34 0 60 25t26 59zM42 896V384h172v512h-172z" fill="#d81e06" p-id="27815"></path></svg>